<svg width="287" height="122" viewBox="0 0 287 122" fill="none" xmlns="http://www.w3.org/2000/svg">
<path d="M14.3027 20.7097C14.3027 15.998 18.1223 12.1785 22.8339 12.1785H260.582C265.294 12.1785 269.113 15.998 269.113 20.7097V101.29C269.113 106.002 265.294 109.822 260.582 109.822H22.8339C18.1223 109.822 14.3027 106.002 14.3027 101.29V20.7097Z" fill="#FDFDFD" stroke="black"/>
<path d="M55.8867 49.1792V51.2592H52.0667V55.3992H49.8067V51.2592H45.9667V49.1792H49.8067V45.0592H52.0667V49.1792H55.8867ZM60.7798 56.6592V48.2992C60.7798 47.9925 60.7798 47.6792 60.7798 47.3592C60.7932 47.0258 60.8065 46.6858 60.8198 46.3392C60.3665 46.7658 59.8598 47.1325 59.2998 47.4392C58.7398 47.7325 58.1665 47.9392 57.5798 48.0592L57.2198 45.7392C57.5132 45.6992 57.8532 45.6058 58.2398 45.4592C58.6265 45.3125 59.0132 45.1325 59.3998 44.9192C59.7998 44.7058 60.1598 44.4725 60.4798 44.2192C60.8132 43.9658 61.0665 43.7125 61.2398 43.4592H63.4798V56.6592H60.7798ZM71.0402 43.2592C72.8002 43.2592 74.1335 43.8592 75.0402 45.0592C75.9602 46.2458 76.4202 47.8992 76.4202 50.0192C76.4202 52.3525 75.9335 54.0792 74.9602 55.1992C73.9868 56.3058 72.6868 56.8592 71.0602 56.8592C69.9268 56.8592 68.9468 56.6192 68.1202 56.1392C67.2935 55.6592 66.6802 54.9258 66.2802 53.9392L68.8202 52.8592C68.9668 53.4058 69.2202 53.8458 69.5802 54.1792C69.9535 54.4992 70.4668 54.6592 71.1202 54.6592C72.1468 54.6592 72.8735 54.2592 73.3002 53.4592C73.7268 52.6592 73.9402 51.5592 73.9402 50.1592V49.8792H73.8602C73.7135 50.3592 73.4602 50.7458 73.1002 51.0392C72.7535 51.3325 72.3535 51.5525 71.9002 51.6992C71.4468 51.8325 70.9802 51.8992 70.5002 51.8992C69.6602 51.8992 68.9135 51.7325 68.2602 51.3992C67.6202 51.0525 67.1135 50.5725 66.7402 49.9592C66.3668 49.3458 66.1802 48.6192 66.1802 47.7792C66.1802 46.8458 66.3802 46.0458 66.7802 45.3792C67.1802 44.6992 67.7402 44.1792 68.4602 43.8192C69.1935 43.4458 70.0535 43.2592 71.0402 43.2592ZM71.0602 45.4992C70.3402 45.4992 69.7868 45.6992 69.4002 46.0992C69.0135 46.4858 68.8202 47.0325 68.8202 47.7392C68.8202 48.3658 69.0202 48.8592 69.4202 49.2192C69.8335 49.5658 70.3802 49.7392 71.0602 49.7392C71.7135 49.7392 72.2468 49.5458 72.6602 49.1592C73.0868 48.7725 73.3002 48.2658 73.3002 47.6392C73.3002 46.9858 73.0868 46.4658 72.6602 46.0792C72.2468 45.6925 71.7135 45.4992 71.0602 45.4992ZM83.8639 56.8592C82.1706 56.8592 80.8639 56.2858 79.9439 55.1392C79.0372 53.9792 78.5839 52.2858 78.5839 50.0592C78.5839 47.8325 79.0372 46.1458 79.9439 44.9992C80.8639 43.8392 82.1706 43.2592 83.8639 43.2592C85.5572 43.2592 86.8572 43.8392 87.7639 44.9992C88.6839 46.1458 89.1439 47.8325 89.1439 50.0592C89.1439 52.2858 88.6839 53.9792 87.7639 55.1392C86.8572 56.2858 85.5572 56.8592 83.8639 56.8592ZM83.8639 54.6392C84.7172 54.6392 85.3506 54.2725 85.7639 53.5392C86.1772 52.7925 86.3839 51.6325 86.3839 50.0592C86.3839 48.4858 86.1772 47.3325 85.7639 46.5992C85.3506 45.8525 84.7172 45.4792 83.8639 45.4792C83.0106 45.4792 82.3772 45.8525 81.9639 46.5992C81.5506 47.3325 81.3439 48.4858 81.3439 50.0592C81.3439 51.6325 81.5506 52.7925 81.9639 53.5392C82.3772 54.2725 83.0106 54.6392 83.8639 54.6392ZM50.8667 64.4592C52.2001 64.4592 53.2334 64.7458 53.9667 65.3192C54.7134 65.8925 55.2067 66.5858 55.4467 67.3992L52.8867 68.3192C52.6201 67.1058 51.9601 66.4992 50.9067 66.4992C50.1467 66.4992 49.5534 66.7658 49.1267 67.2992C48.7134 67.8325 48.5067 68.6258 48.5067 69.6792C48.5067 70.7458 48.7201 71.5392 49.1467 72.0592C49.5867 72.5658 50.1801 72.8192 50.9267 72.8192C52.0867 72.8192 52.7801 72.2258 53.0067 71.0392L55.4867 71.8392C55.2601 72.7325 54.7534 73.4592 53.9667 74.0192C53.1934 74.5792 52.1867 74.8592 50.9467 74.8592C49.9067 74.8592 48.9934 74.6525 48.2067 74.2392C47.4334 73.8258 46.8334 73.2325 46.4067 72.4592C45.9801 71.6858 45.7667 70.7525 45.7667 69.6592C45.7667 68.5658 45.9801 67.6325 46.4067 66.8592C46.8467 66.0858 47.4467 65.4925 48.2067 65.0792C48.9801 64.6658 49.8667 64.4592 50.8667 64.4592ZM62.1758 64.4592C63.1758 64.4592 64.0624 64.6658 64.8358 65.0792C65.6091 65.4925 66.2091 66.0858 66.6358 66.8592C67.0758 67.6325 67.2958 68.5658 67.2958 69.6592C67.2958 70.7525 67.0758 71.6858 66.6358 72.4592C66.2091 73.2325 65.6091 73.8258 64.8358 74.2392C64.0624 74.6525 63.1758 74.8592 62.1758 74.8592C61.1624 74.8592 60.2691 74.6525 59.4958 74.2392C58.7358 73.8258 58.1358 73.2325 57.6958 72.4592C57.2691 71.6858 57.0558 70.7525 57.0558 69.6592C57.0558 68.5658 57.2691 67.6325 57.6958 66.8592C58.1358 66.0858 58.7358 65.4925 59.4958 65.0792C60.2691 64.6658 61.1624 64.4592 62.1758 64.4592ZM62.1758 66.4992C61.4291 66.4992 60.8424 66.7658 60.4158 67.2992C60.0024 67.8192 59.7958 68.6058 59.7958 69.6592C59.7958 70.7125 60.0024 71.5058 60.4158 72.0392C60.8424 72.5592 61.4291 72.8192 62.1758 72.8192C62.9091 72.8192 63.4824 72.5592 63.8958 72.0392C64.3224 71.5058 64.5358 70.7125 64.5358 69.6592C64.5358 68.6058 64.3224 67.8192 63.8958 67.2992C63.4824 66.7658 62.9091 66.4992 62.1758 66.4992ZM73.0684 74.8592C72.4018 74.8592 71.8018 74.7392 71.2684 74.4992C70.7351 74.2592 70.3084 73.8792 69.9884 73.3592C69.6818 72.8392 69.5284 72.1525 69.5284 71.2992V64.6592H72.2684V70.6392C72.2684 71.4125 72.4284 71.9525 72.7484 72.2592C73.0684 72.5525 73.5284 72.6992 74.1284 72.6992C74.7018 72.6992 75.2084 72.4925 75.6484 72.0792C76.1018 71.6525 76.3284 70.9725 76.3284 70.0392V64.6592H79.0684V74.6592H76.6284L76.5284 72.9192C76.1951 73.5725 75.7351 74.0592 75.1484 74.3792C74.5618 74.6992 73.8684 74.8592 73.0684 74.8592ZM81.9517 74.6592V64.6592H84.4117L84.5117 66.5392C84.8184 65.8458 85.2651 65.3258 85.8517 64.9792C86.4517 64.6325 87.1384 64.4592 87.9117 64.4592C88.9517 64.4592 89.8117 64.7658 90.4917 65.3792C91.1717 65.9792 91.5117 66.8858 91.5117 68.0992V74.6592H88.7717V68.8792C88.7717 68.0258 88.5984 67.4392 88.2517 67.1192C87.9184 66.7858 87.4917 66.6192 86.9717 66.6192C86.5984 66.6192 86.2317 66.7125 85.8717 66.8992C85.5251 67.0725 85.2384 67.3592 85.0117 67.7592C84.7984 68.1592 84.6917 68.6925 84.6917 69.3592V74.6592H81.9517ZM100.996 64.6592V66.6992H97.7964V71.3992C97.7964 71.8792 97.9164 72.2325 98.1564 72.4592C98.4097 72.6725 98.7497 72.7792 99.1764 72.7792C99.5231 72.7792 99.8164 72.7325 100.056 72.6392C100.31 72.5325 100.536 72.3925 100.736 72.2192L101.176 74.0392C100.843 74.2925 100.436 74.4925 99.9564 74.6392C99.4897 74.7858 98.9897 74.8592 98.4564 74.8592C97.4564 74.8592 96.6364 74.6325 95.9964 74.1792C95.3697 73.7125 95.0564 72.9325 95.0564 71.8392V66.6992H93.2164V64.6592H95.0564V62.3592L97.7964 61.5992V64.6592H100.996ZM102.85 74.6592V64.6592H105.23L105.41 66.6192C105.663 65.9392 106.043 65.4125 106.55 65.0392C107.07 64.6525 107.723 64.4592 108.51 64.4592C108.977 64.4592 109.337 64.5325 109.59 64.6792L109.27 66.9792C109.137 66.9392 108.97 66.9058 108.77 66.8792C108.583 66.8392 108.337 66.8192 108.03 66.8192C107.617 66.8192 107.223 66.9192 106.85 67.1192C106.49 67.3058 106.19 67.5992 105.95 67.9992C105.71 68.3858 105.59 68.8792 105.59 69.4792V74.6592H102.85ZM112.668 63.2192C111.534 63.2192 110.968 62.7325 110.968 61.7592C110.968 60.7725 111.534 60.2792 112.668 60.2792C113.801 60.2792 114.368 60.7725 114.368 61.7592C114.368 62.7325 113.801 63.2192 112.668 63.2192ZM114.028 64.6592V74.6592H111.288V64.6592H114.028ZM121.572 74.8592C119.999 74.8592 118.739 74.4058 117.792 73.4992C116.846 72.5792 116.372 71.2992 116.372 69.6592C116.372 68.5658 116.586 67.6325 117.012 66.8592C117.439 66.0858 118.032 65.4925 118.792 65.0792C119.566 64.6658 120.446 64.4592 121.432 64.4592C122.446 64.4592 123.306 64.6658 124.012 65.0792C124.719 65.4792 125.259 66.0325 125.632 66.7392C126.006 67.4325 126.192 68.2258 126.192 69.1192C126.192 69.3858 126.186 69.6392 126.172 69.8792C126.159 70.1192 126.139 70.3325 126.112 70.5192H119.052C119.159 71.2925 119.426 71.8725 119.852 72.2592C120.292 72.6325 120.859 72.8192 121.552 72.8192C122.139 72.8192 122.612 72.7058 122.972 72.4792C123.332 72.2525 123.612 71.9392 123.812 71.5392L125.992 72.3792C125.672 73.1658 125.112 73.7792 124.312 74.2192C123.512 74.6458 122.599 74.8592 121.572 74.8592ZM121.412 66.4792C120.119 66.4792 119.339 67.1925 119.072 68.6192H123.572C123.492 67.9258 123.266 67.3992 122.892 67.0392C122.532 66.6658 122.039 66.4792 121.412 66.4792ZM132.514 74.8592C131.501 74.8592 130.574 74.6792 129.734 74.3192C128.908 73.9592 128.234 73.4525 127.714 72.7992L129.294 71.1992C129.614 71.6792 130.041 72.0725 130.574 72.3792C131.108 72.6858 131.741 72.8392 132.474 72.8392C132.994 72.8392 133.408 72.7658 133.714 72.6192C134.034 72.4592 134.194 72.2125 134.194 71.8792C134.194 71.6658 134.121 71.4858 133.974 71.3392C133.828 71.1792 133.534 71.0525 133.094 70.9592L131.334 70.5992C130.174 70.3592 129.348 69.9992 128.854 69.5192C128.374 69.0258 128.134 68.3925 128.134 67.6192C128.134 67.0725 128.294 66.5592 128.614 66.0792C128.948 65.5992 129.441 65.2125 130.094 64.9192C130.748 64.6125 131.561 64.4592 132.534 64.4592C134.561 64.4592 136.014 65.0792 136.894 66.3192L135.254 67.9192C134.961 67.4525 134.574 67.0992 134.094 66.8592C133.628 66.6058 133.134 66.4792 132.614 66.4792C131.441 66.4792 130.854 66.8058 130.854 67.4592C130.854 67.6725 130.948 67.8592 131.134 68.0192C131.321 68.1658 131.661 68.2925 132.154 68.3992L134.194 68.8192C135.181 69.0192 135.888 69.3592 136.314 69.8392C136.741 70.3058 136.954 70.8725 136.954 71.5392C136.954 72.4992 136.568 73.2925 135.794 73.9192C135.034 74.5458 133.941 74.8592 132.514 74.8592Z" fill="black"/>
<g clip-path="url(#clip0_507_4676)">
<path d="M161.532 73.5002C154.629 73.5002 149.032 67.9038 149.032 61.0002C149.032 54.0967 154.629 48.5002 161.532 48.5002C168.436 48.5002 174.032 54.0967 174.032 61.0002C174.032 67.9038 168.436 73.5002 161.532 73.5002Z" fill="#F0F0F0"/>
<path d="M161.532 48.5002C166.488 48.5002 170.77 51.3843 172.792 55.5655L150.273 55.5655C152.295 51.3843 156.577 48.5002 161.532 48.5002Z" fill="#338AF3"/>
<path d="M161.532 73.5003C156.577 73.5003 152.295 70.6163 150.273 66.4351L172.792 66.4351C170.77 70.6163 166.488 73.5003 161.532 73.5003Z" fill="#338AF3"/>
<path d="M157.796 61.0003L159.323 61.7185L158.51 63.1969L160.168 62.8798L160.378 64.5544L161.532 63.3228L162.687 64.5544L162.897 62.8798L164.555 63.1969L163.742 61.7184L165.269 61.0003L163.742 60.2822L164.555 58.8038L162.897 59.1209L162.687 57.4463L161.532 58.6779L160.378 57.4463L160.168 59.1209L158.51 58.8038L159.323 60.2823L157.796 61.0003Z" fill="#FFDA44"/>
</g>
<g clip-path="url(#clip1_507_4676)">
<path d="M192.229 61.0002C192.229 54.0967 186.632 48.5002 179.729 48.5002C172.825 48.5002 167.229 54.0967 167.229 61.0002L179.729 62.0872L192.229 61.0002Z" fill="#FFDA44"/>
<path d="M190.556 67.2503C188.394 70.9864 184.355 73.5003 179.728 73.5003C175.102 73.5003 171.062 70.9864 168.901 67.2503L179.728 66.4351L190.556 67.2503Z" fill="#D80027"/>
<path d="M168.901 67.2502C167.838 65.4117 167.229 63.2772 167.229 61.0002L192.229 61.0002C192.229 63.2771 191.619 65.4117 190.556 67.2502L168.901 67.2502Z" fill="#0052B4"/>
</g>
<g clip-path="url(#clip2_507_4676)">
<path d="M183.335 61.0002C183.335 59.4712 183.61 58.0065 184.112 56.6524L195.835 56.1089L207.557 56.6523C208.06 58.0065 208.335 59.4712 208.335 61.0002C208.335 62.5292 208.06 63.9939 207.557 65.348L195.835 65.8915L184.112 65.348C183.61 63.9939 183.335 62.5292 183.335 61.0002Z" fill="#FFDA44"/>
<path d="M195.835 73.5003C190.461 73.5003 185.879 70.1082 184.113 65.3481L207.558 65.3481C205.791 70.1082 201.21 73.5003 195.835 73.5003Z" fill="#6DA544"/>
<path d="M207.558 56.6524L184.113 56.6524C185.879 51.8924 190.461 48.5002 195.835 48.5002C201.21 48.5002 205.791 51.8924 207.558 56.6524Z" fill="#D80027"/>
</g>
<g clip-path="url(#clip3_507_4676)">
<path d="M213.532 73.5002C206.629 73.5002 201.032 67.9038 201.032 61.0002C201.032 54.0967 206.629 48.5002 213.532 48.5002C220.436 48.5002 226.032 54.0967 226.032 61.0002C226.032 67.9038 220.436 73.5002 213.532 73.5002Z" fill="#496E2D"/>
<path d="M216.25 66.435C213.248 66.435 210.815 64.0017 210.815 61.0002C210.815 57.9987 213.248 55.5654 216.25 55.5654C219.251 55.5654 221.685 57.9987 221.685 61.0002C221.685 64.0017 219.251 66.435 216.25 66.435Z" fill="#D80027"/>
</g>
<g clip-path="url(#clip4_507_4676)">
<path d="M234.032 73.5002C227.129 73.5002 221.532 67.9038 221.532 61.0002C221.532 54.0967 227.129 48.5002 234.032 48.5002C240.936 48.5002 246.532 54.0967 246.532 61.0002C246.532 67.9038 240.936 73.5002 234.032 73.5002Z" fill="#F0F0F0"/>
<path d="M234.575 61.0001L221.532 61.0001C221.532 59.8719 221.682 58.779 221.962 57.7393L234.575 57.7393L234.575 61.0001Z" fill="#D80027"/>
<path d="M234.575 54.4784L223.366 54.4784C224.132 53.2298 225.11 52.1261 226.251 51.2175L234.575 51.2175L234.575 54.4784Z" fill="#D80027"/>
<path d="M234.032 73.5001C231.091 73.5001 228.387 72.4833 226.251 70.7827L241.813 70.7827C239.678 72.4833 236.974 73.5001 234.032 73.5001Z" fill="#D80027"/>
<path d="M244.698 67.5219L223.367 67.5219C222.753 66.5195 222.276 65.4238 221.963 64.261L246.102 64.261C245.788 65.4238 245.312 66.5195 244.698 67.5219Z" fill="#D80027"/>
<path d="M240.742 50.4523L239.603 50.4523L240.662 51.2221L240.258 52.4676L241.317 51.6979L242.377 52.4676L242.027 51.3916C242.96 52.1687 243.778 53.0792 244.452 54.0936L244.087 54.0936L244.761 54.5836C244.866 54.7589 244.967 54.937 245.063 55.1177L244.741 56.1089L245.342 55.6724C245.492 55.9888 245.628 56.3124 245.751 56.6427L245.396 57.7349L244.087 57.7349L245.146 58.5047L244.741 59.7502L245.801 58.9805L246.436 59.4416C246.499 59.9522 246.532 60.4724 246.532 61.0002L234.032 61.0002C234.032 54.0967 234.032 53.2829 234.032 48.5002C236.502 48.5002 238.803 49.2166 240.742 50.4523ZM240.258 59.7502L241.317 58.9805L242.377 59.7502L241.972 58.5047L243.032 57.7349L241.722 57.7349L241.317 56.4894L240.913 57.7349L239.603 57.7349L240.662 58.5047L240.258 59.7502ZM240.662 54.8634L240.258 56.1089L241.317 55.3392L242.377 56.1089L241.972 54.8634L243.032 54.0936L241.722 54.0936L241.317 52.848L240.913 54.0936L239.603 54.0936L240.662 54.8634ZM235.774 59.7502L236.834 58.9805L237.893 59.7502L237.488 58.5047L238.548 57.7349L237.238 57.7349L236.834 56.4894L236.429 57.7349L235.119 57.7349L236.179 58.5047L235.774 59.7502ZM236.179 54.8634L235.774 56.1089L236.834 55.3392L237.893 56.1089L237.488 54.8634L238.548 54.0936L237.238 54.0936L236.834 52.848L236.429 54.0936L235.119 54.0936L236.179 54.8634ZM236.179 51.2221L235.774 52.4676L236.834 51.6979L237.893 52.4676L237.488 51.2221L238.548 50.4523L237.238 50.4523L236.834 49.2067L236.429 50.4523L235.119 50.4523L236.179 51.2221Z" fill="#0052B4"/>
</g>
<defs>
<clipPath id="clip0_507_4676">
<rect width="25" height="25" fill="white" transform="matrix(-1 8.74228e-08 8.74228e-08 1 174.032 48.5002)"/>
</clipPath>
<clipPath id="clip1_507_4676">
<rect width="25" height="25" fill="white" transform="matrix(-1 8.74228e-08 8.74228e-08 1 192.229 48.5002)"/>
</clipPath>
<clipPath id="clip2_507_4676">
<rect width="25" height="25" fill="white" transform="matrix(-1 8.74228e-08 8.74228e-08 1 208.335 48.5002)"/>
</clipPath>
<clipPath id="clip3_507_4676">
<rect width="25" height="25" fill="white" transform="matrix(-1 8.74228e-08 8.74228e-08 1 226.032 48.5002)"/>
</clipPath>
<clipPath id="clip4_507_4676">
<rect width="25" height="25" fill="white" transform="matrix(-1 8.74228e-08 8.74228e-08 1 246.532 48.5002)"/>
</clipPath>
</defs>
</svg>
