<svg width="287" height="122" viewBox="0 0 287 122" fill="none" xmlns="http://www.w3.org/2000/svg">
<path d="M54.9121 13.8388C54.9121 9.12716 58.7317 5.30762 63.4433 5.30762H271.229C275.94 5.30762 279.76 9.12716 279.76 13.8388V94.4195C279.76 99.1311 275.94 102.951 271.229 102.951H63.4433C58.7317 102.951 54.9121 99.1311 54.9121 94.4195V13.8388Z" fill="#FDFDFD" stroke="black"/>
<path d="M116.955 42.5522V44.6322H113.135V48.7722H110.875V44.6322H107.035V42.5522H110.875V38.4322H113.135V42.5522H116.955ZM123.745 50.2322C122.585 50.2322 121.605 49.9922 120.805 49.5122C120.019 49.0322 119.372 48.2989 118.865 47.3122L121.345 46.0722C121.519 46.6589 121.792 47.1322 122.165 47.4922C122.539 47.8522 123.085 48.0322 123.805 48.0322C124.539 48.0322 125.112 47.8389 125.525 47.4522C125.952 47.0656 126.165 46.5122 126.165 45.7922C126.165 45.0722 125.965 44.5256 125.565 44.1522C125.179 43.7789 124.612 43.5922 123.865 43.5922C122.772 43.5922 121.965 43.9122 121.445 44.5522L119.285 44.1522L120.105 36.8322H128.085V39.0522H122.185L121.785 42.2722L121.725 42.5322H121.765C122.045 42.2256 122.425 41.9856 122.905 41.8122C123.399 41.6256 123.959 41.5322 124.585 41.5322C125.439 41.5322 126.172 41.7056 126.785 42.0522C127.412 42.3989 127.892 42.8856 128.225 43.5122C128.559 44.1256 128.725 44.8322 128.725 45.6322C128.725 46.6456 128.499 47.4989 128.045 48.1922C127.605 48.8722 127.005 49.3856 126.245 49.7322C125.499 50.0656 124.665 50.2322 123.745 50.2322ZM136.026 50.2322C134.333 50.2322 133.026 49.6589 132.106 48.5122C131.199 47.3522 130.746 45.6589 130.746 43.4322C130.746 41.2056 131.199 39.5189 132.106 38.3722C133.026 37.2122 134.333 36.6322 136.026 36.6322C137.719 36.6322 139.019 37.2122 139.926 38.3722C140.846 39.5189 141.306 41.2056 141.306 43.4322C141.306 45.6589 140.846 47.3522 139.926 48.5122C139.019 49.6589 137.719 50.2322 136.026 50.2322ZM136.026 48.0122C136.879 48.0122 137.513 47.6456 137.926 46.9122C138.339 46.1656 138.546 45.0056 138.546 43.4322C138.546 41.8589 138.339 40.7056 137.926 39.9722C137.513 39.2256 136.879 38.8522 136.026 38.8522C135.173 38.8522 134.539 39.2256 134.126 39.9722C133.713 40.7056 133.506 41.8589 133.506 43.4322C133.506 45.0056 133.713 46.1656 134.126 46.9122C134.539 47.6456 135.173 48.0122 136.026 48.0122ZM148.741 50.2322C147.048 50.2322 145.741 49.6589 144.821 48.5122C143.914 47.3522 143.461 45.6589 143.461 43.4322C143.461 41.2056 143.914 39.5189 144.821 38.3722C145.741 37.2122 147.048 36.6322 148.741 36.6322C150.434 36.6322 151.734 37.2122 152.641 38.3722C153.561 39.5189 154.021 41.2056 154.021 43.4322C154.021 45.6589 153.561 47.3522 152.641 48.5122C151.734 49.6589 150.434 50.2322 148.741 50.2322ZM148.741 48.0122C149.594 48.0122 150.228 47.6456 150.641 46.9122C151.054 46.1656 151.261 45.0056 151.261 43.4322C151.261 41.8589 151.054 40.7056 150.641 39.9722C150.228 39.2256 149.594 38.8522 148.741 38.8522C147.888 38.8522 147.254 39.2256 146.841 39.9722C146.428 40.7056 146.221 41.8589 146.221 43.4322C146.221 45.0056 146.428 46.1656 146.841 46.9122C147.254 47.6456 147.888 48.0122 148.741 48.0122ZM162.649 54.2322V40.0322H165.109L165.229 41.9922C165.509 41.3522 165.936 40.8322 166.509 40.4322C167.096 40.0322 167.782 39.8322 168.569 39.8322C169.382 39.8322 170.109 40.0389 170.749 40.4522C171.389 40.8656 171.889 41.4589 172.249 42.2322C172.622 42.9922 172.809 43.9189 172.809 45.0122C172.809 46.1056 172.622 47.0456 172.249 47.8322C171.876 48.6056 171.362 49.1989 170.709 49.6122C170.069 50.0256 169.336 50.2322 168.509 50.2322C167.776 50.2322 167.142 50.0589 166.609 49.7122C166.089 49.3656 165.682 48.9056 165.389 48.3322V54.2322H162.649ZM167.709 48.1322C168.442 48.1322 169.016 47.8722 169.429 47.3522C169.856 46.8189 170.069 46.0456 170.069 45.0322C170.069 44.0189 169.862 43.2522 169.449 42.7322C169.049 42.1989 168.482 41.9322 167.749 41.9322C167.042 41.9322 166.469 42.2056 166.029 42.7522C165.602 43.2989 165.389 44.0589 165.389 45.0322C165.389 45.9922 165.596 46.7522 166.009 47.3122C166.436 47.8589 167.002 48.1322 167.709 48.1322ZM180.829 43.6522C180.829 43.0789 180.663 42.6322 180.329 42.3122C180.009 41.9922 179.583 41.8322 179.049 41.8322C178.556 41.8322 178.123 41.9589 177.749 42.2122C177.376 42.4656 177.103 42.8856 176.929 43.4722L174.589 42.7522C174.816 41.8722 175.309 41.1656 176.069 40.6322C176.843 40.0989 177.876 39.8322 179.169 39.8322C180.476 39.8322 181.529 40.1456 182.329 40.7722C183.143 41.3856 183.549 42.3056 183.549 43.5322V47.5922C183.549 48.0989 183.789 48.3522 184.269 48.3522C184.496 48.3522 184.709 48.3189 184.909 48.2522L184.749 49.9522C184.403 50.1256 183.969 50.2122 183.449 50.2122C182.876 50.2122 182.376 50.0922 181.949 49.8522C181.536 49.6122 181.256 49.2522 181.109 48.7722C180.789 49.2522 180.329 49.6189 179.729 49.8722C179.143 50.1122 178.536 50.2322 177.909 50.2322C176.896 50.2322 176.089 50.0056 175.489 49.5522C174.903 49.0856 174.609 48.4122 174.609 47.5322C174.609 46.7856 174.849 46.1789 175.329 45.7122C175.809 45.2322 176.496 44.9056 177.389 44.7322L180.829 44.0322V43.6522ZM177.349 47.2722C177.349 47.6056 177.469 47.8589 177.709 48.0322C177.963 48.2056 178.263 48.2922 178.609 48.2922C178.996 48.2922 179.356 48.2322 179.689 48.1122C180.023 47.9922 180.296 47.7922 180.509 47.5122C180.723 47.2189 180.829 46.8322 180.829 46.3522V45.7322L178.729 46.1522C178.276 46.2456 177.929 46.3722 177.689 46.5322C177.463 46.6789 177.349 46.9256 177.349 47.2722ZM195.389 40.0322L191.349 50.6522C191.029 51.5589 190.669 52.2789 190.269 52.8122C189.882 53.3589 189.429 53.7456 188.909 53.9722C188.402 54.2122 187.795 54.3322 187.089 54.3322C186.569 54.3322 186.089 54.2722 185.649 54.1522C185.222 54.0322 184.849 53.8656 184.529 53.6522L185.109 51.6722C185.575 52.0456 186.162 52.2322 186.869 52.2322C187.255 52.2322 187.582 52.1522 187.849 51.9922C188.115 51.8322 188.342 51.5122 188.529 51.0322L188.869 50.1722L187.769 47.5722L184.709 40.0322H187.749L189.649 46.0322L190.169 48.0322L190.789 45.9122L192.609 40.0322H195.389ZM196.907 50.0322V40.0322H199.367L199.467 41.8322C199.8 41.1656 200.253 40.6656 200.827 40.3322C201.413 39.9989 202.06 39.8322 202.767 39.8322C203.487 39.8322 204.133 39.9989 204.707 40.3322C205.293 40.6522 205.733 41.1456 206.027 41.8122C206.333 41.1456 206.807 40.6522 207.447 40.3322C208.087 39.9989 208.747 39.8322 209.427 39.8322C210.08 39.8322 210.673 39.9656 211.207 40.2322C211.753 40.4989 212.187 40.8989 212.507 41.4322C212.827 41.9656 212.987 42.6456 212.987 43.4722V50.0322H210.247V44.0122C210.247 43.2789 210.08 42.7589 209.747 42.4522C209.427 42.1456 209.02 41.9922 208.527 41.9922C207.913 41.9922 207.393 42.2189 206.967 42.6722C206.54 43.1122 206.327 43.7722 206.327 44.6522V50.0322H203.587V44.0122C203.587 43.2789 203.42 42.7589 203.087 42.4522C202.767 42.1456 202.353 41.9922 201.847 41.9922C201.5 41.9922 201.153 42.0856 200.807 42.2722C200.473 42.4589 200.193 42.7522 199.967 43.1522C199.753 43.5522 199.647 44.0789 199.647 44.7322V50.0322H196.907ZM220.453 50.2322C218.88 50.2322 217.62 49.7789 216.673 48.8722C215.726 47.9522 215.253 46.6722 215.253 45.0322C215.253 43.9389 215.466 43.0056 215.893 42.2322C216.32 41.4589 216.913 40.8656 217.673 40.4522C218.446 40.0389 219.326 39.8322 220.313 39.8322C221.326 39.8322 222.186 40.0389 222.893 40.4522C223.6 40.8522 224.14 41.4056 224.513 42.1122C224.886 42.8056 225.073 43.5989 225.073 44.4922C225.073 44.7589 225.066 45.0122 225.053 45.2522C225.04 45.4922 225.02 45.7056 224.993 45.8922H217.933C218.04 46.6656 218.306 47.2456 218.733 47.6322C219.173 48.0056 219.74 48.1922 220.433 48.1922C221.02 48.1922 221.493 48.0789 221.853 47.8522C222.213 47.6256 222.493 47.3122 222.693 46.9122L224.873 47.7522C224.553 48.5389 223.993 49.1522 223.193 49.5922C222.393 50.0189 221.48 50.2322 220.453 50.2322ZM220.293 41.8522C219 41.8522 218.22 42.5656 217.953 43.9922H222.453C222.373 43.2989 222.146 42.7722 221.773 42.4122C221.413 42.0389 220.92 41.8522 220.293 41.8522ZM227.395 50.0322V40.0322H229.855L229.955 41.9122C230.262 41.2189 230.708 40.6989 231.295 40.3522C231.895 40.0056 232.582 39.8322 233.355 39.8322C234.395 39.8322 235.255 40.1389 235.935 40.7522C236.615 41.3522 236.955 42.2589 236.955 43.4722V50.0322H234.215V44.2522C234.215 43.3989 234.042 42.8122 233.695 42.4922C233.362 42.1589 232.935 41.9922 232.415 41.9922C232.042 41.9922 231.675 42.0856 231.315 42.2722C230.968 42.4456 230.682 42.7322 230.455 43.1322C230.242 43.5322 230.135 44.0656 230.135 44.7322V50.0322H227.395ZM246.44 40.0322V42.0722H243.24V46.7722C243.24 47.2522 243.36 47.6056 243.6 47.8322C243.853 48.0456 244.193 48.1522 244.62 48.1522C244.966 48.1522 245.26 48.1056 245.5 48.0122C245.753 47.9056 245.98 47.7656 246.18 47.5922L246.62 49.4122C246.286 49.6656 245.88 49.8656 245.4 50.0122C244.933 50.1589 244.433 50.2322 243.9 50.2322C242.9 50.2322 242.08 50.0056 241.44 49.5522C240.813 49.0856 240.5 48.3056 240.5 47.2122V42.0722H238.66V40.0322H240.5V37.7322L243.24 36.9722V40.0322H246.44ZM107.395 69.0322V59.0322H109.855L109.955 60.8322C110.288 60.1656 110.742 59.6656 111.315 59.3322C111.902 58.9989 112.548 58.8322 113.255 58.8322C113.975 58.8322 114.622 58.9989 115.195 59.3322C115.782 59.6522 116.222 60.1456 116.515 60.8122C116.822 60.1456 117.295 59.6522 117.935 59.3322C118.575 58.9989 119.235 58.8322 119.915 58.8322C120.568 58.8322 121.162 58.9656 121.695 59.2322C122.242 59.4989 122.675 59.8989 122.995 60.4322C123.315 60.9656 123.475 61.6456 123.475 62.4722V69.0322H120.735V63.0122C120.735 62.2789 120.568 61.7589 120.235 61.4522C119.915 61.1456 119.508 60.9922 119.015 60.9922C118.402 60.9922 117.882 61.2189 117.455 61.6722C117.028 62.1122 116.815 62.7722 116.815 63.6522V69.0322H114.075V63.0122C114.075 62.2789 113.908 61.7589 113.575 61.4522C113.255 61.1456 112.842 60.9922 112.335 60.9922C111.988 60.9922 111.642 61.0856 111.295 61.2722C110.962 61.4589 110.682 61.7522 110.455 62.1522C110.242 62.5522 110.135 63.0789 110.135 63.7322V69.0322H107.395ZM130.941 69.2322C129.368 69.2322 128.108 68.7789 127.161 67.8722C126.215 66.9522 125.741 65.6722 125.741 64.0322C125.741 62.9389 125.955 62.0056 126.381 61.2322C126.808 60.4589 127.401 59.8656 128.161 59.4522C128.935 59.0389 129.815 58.8322 130.801 58.8322C131.815 58.8322 132.675 59.0389 133.381 59.4522C134.088 59.8522 134.628 60.4056 135.001 61.1122C135.375 61.8056 135.561 62.5989 135.561 63.4922C135.561 63.7589 135.555 64.0122 135.541 64.2522C135.528 64.4922 135.508 64.7056 135.481 64.8922H128.421C128.528 65.6656 128.795 66.2456 129.221 66.6322C129.661 67.0056 130.228 67.1922 130.921 67.1922C131.508 67.1922 131.981 67.0789 132.341 66.8522C132.701 66.6256 132.981 66.3122 133.181 65.9122L135.361 66.7522C135.041 67.5389 134.481 68.1522 133.681 68.5922C132.881 69.0189 131.968 69.2322 130.941 69.2322ZM130.781 60.8522C129.488 60.8522 128.708 61.5656 128.441 62.9922H132.941C132.861 62.2989 132.635 61.7722 132.261 61.4122C131.901 61.0389 131.408 60.8522 130.781 60.8522ZM144.448 59.0322V61.0722H141.248V65.7722C141.248 66.2522 141.368 66.6056 141.608 66.8322C141.861 67.0456 142.201 67.1522 142.628 67.1522C142.974 67.1522 143.268 67.1056 143.508 67.0122C143.761 66.9056 143.988 66.7656 144.188 66.5922L144.628 68.4122C144.294 68.6656 143.888 68.8656 143.408 69.0122C142.941 69.1589 142.441 69.2322 141.908 69.2322C140.908 69.2322 140.088 69.0056 139.448 68.5522C138.821 68.0856 138.508 67.3056 138.508 66.2122V61.0722H136.668V59.0322H138.508V56.7322L141.248 55.9722V59.0322H144.448ZM146.458 69.0322V54.6522H149.198V60.7322C149.518 60.0922 149.958 59.6189 150.518 59.3122C151.078 58.9922 151.711 58.8322 152.418 58.8322C153.458 58.8322 154.318 59.1389 154.998 59.7522C155.678 60.3522 156.018 61.2589 156.018 62.4722V69.0322H153.278V63.2722C153.278 62.4056 153.111 61.8122 152.778 61.4922C152.444 61.1589 152.018 60.9922 151.498 60.9922C151.111 60.9922 150.744 61.0856 150.398 61.2722C150.051 61.4456 149.764 61.7389 149.538 62.1522C149.311 62.5522 149.198 63.0856 149.198 63.7522V69.0322H146.458ZM163.4 58.8322C164.4 58.8322 165.287 59.0389 166.06 59.4522C166.834 59.8656 167.434 60.4589 167.86 61.2322C168.3 62.0056 168.52 62.9389 168.52 64.0322C168.52 65.1256 168.3 66.0589 167.86 66.8322C167.434 67.6056 166.834 68.1989 166.06 68.6122C165.287 69.0256 164.4 69.2322 163.4 69.2322C162.387 69.2322 161.494 69.0256 160.72 68.6122C159.96 68.1989 159.36 67.6056 158.92 66.8322C158.494 66.0589 158.28 65.1256 158.28 64.0322C158.28 62.9389 158.494 62.0056 158.92 61.2322C159.36 60.4589 159.96 59.8656 160.72 59.4522C161.494 59.0389 162.387 58.8322 163.4 58.8322ZM163.4 60.8722C162.654 60.8722 162.067 61.1389 161.64 61.6722C161.227 62.1922 161.02 62.9789 161.02 64.0322C161.02 65.0856 161.227 65.8789 161.64 66.4122C162.067 66.9322 162.654 67.1922 163.4 67.1922C164.134 67.1922 164.707 66.9322 165.12 66.4122C165.547 65.8789 165.76 65.0856 165.76 64.0322C165.76 62.9789 165.547 62.1922 165.12 61.6722C164.707 61.1389 164.134 60.8722 163.4 60.8722ZM174.593 69.2322C173.766 69.2322 173.026 69.0256 172.373 68.6122C171.733 68.1989 171.226 67.6122 170.853 66.8522C170.493 66.0789 170.313 65.1456 170.313 64.0522C170.313 62.9456 170.506 62.0056 170.893 61.2322C171.28 60.4456 171.8 59.8522 172.453 59.4522C173.12 59.0389 173.866 58.8322 174.693 58.8322C175.413 58.8322 176.033 59.0056 176.553 59.3522C177.073 59.6989 177.466 60.1589 177.733 60.7322V54.6522H180.473V69.0322H178.013L177.893 67.0922C177.613 67.7589 177.18 68.2856 176.593 68.6722C176.006 69.0456 175.34 69.2322 174.593 69.2322ZM175.393 67.1322C176.1 67.1322 176.666 66.8589 177.093 66.3122C177.52 65.7522 177.733 64.9656 177.733 63.9522C177.733 62.9922 177.52 62.2522 177.093 61.7322C176.68 61.1989 176.126 60.9322 175.433 60.9322C174.686 60.9322 174.1 61.1989 173.673 61.7322C173.26 62.2522 173.053 63.0189 173.053 64.0322C173.053 65.0456 173.26 65.8189 173.673 66.3522C174.086 66.8722 174.66 67.1322 175.393 67.1322ZM187.352 69.2322C186.339 69.2322 185.412 69.0522 184.572 68.6922C183.745 68.3322 183.072 67.8256 182.552 67.1722L184.132 65.5722C184.452 66.0522 184.879 66.4456 185.412 66.7522C185.945 67.0589 186.579 67.2122 187.312 67.2122C187.832 67.2122 188.245 67.1389 188.552 66.9922C188.872 66.8322 189.032 66.5856 189.032 66.2522C189.032 66.0389 188.959 65.8589 188.812 65.7122C188.665 65.5522 188.372 65.4256 187.932 65.3322L186.172 64.9722C185.012 64.7322 184.185 64.3722 183.692 63.8922C183.212 63.3989 182.972 62.7656 182.972 61.9922C182.972 61.4456 183.132 60.9322 183.452 60.4522C183.785 59.9722 184.279 59.5856 184.932 59.2922C185.585 58.9856 186.399 58.8322 187.372 58.8322C189.399 58.8322 190.852 59.4522 191.732 60.6922L190.092 62.2922C189.799 61.8256 189.412 61.4722 188.932 61.2322C188.465 60.9789 187.972 60.8522 187.452 60.8522C186.279 60.8522 185.692 61.1789 185.692 61.8322C185.692 62.0456 185.785 62.2322 185.972 62.3922C186.159 62.5389 186.499 62.6656 186.992 62.7722L189.032 63.1922C190.019 63.3922 190.725 63.7322 191.152 64.2122C191.579 64.6789 191.792 65.2456 191.792 65.9122C191.792 66.8722 191.405 67.6656 190.632 68.2922C189.872 68.9189 188.779 69.2322 187.352 69.2322Z" fill="black"/>
<g style="mix-blend-mode:multiply">
<path d="M21.9059 51.4041L15.797 72.96C14.9951 75.6216 14.5925 76.9523 15.0384 78.0862C15.4277 79.0835 16.2628 79.9728 17.4207 80.627C18.7384 81.3734 20.6648 81.6688 24.5179 82.2627L65.6667 88.8435C69.523 89.4374 71.4495 89.736 73.0766 89.4438C74.5073 89.1865 75.7817 88.6244 76.71 87.8304C77.7681 86.9284 78.1674 85.5976 78.9692 82.936L85.0782 61.3801C85.8801 58.7185 86.2827 57.3878 85.8368 56.2539C85.4475 55.2566 84.6124 54.3673 83.4545 53.7131C82.1368 52.9667 80.2103 52.6713 76.3573 52.0774L35.2085 45.4966C31.3522 44.9026 29.4256 44.6041 27.7986 44.8963C26.3645 45.1536 25.0935 45.7157 24.1652 46.5097C23.1071 47.4117 22.7078 48.7425 21.9059 51.4041Z" fill="#050505"/>
</g>
<path d="M17.5797 45.052L11.4707 66.608C10.6689 69.2695 5.94407 64.7182 6.3866 65.8521C6.7759 66.8493 11.9332 73.6207 13.0911 74.275C14.4087 75.0214 16.3352 75.3167 20.1883 75.9107L61.3371 82.4915C65.1934 83.0854 67.1199 83.3839 68.747 83.0917C70.1777 82.8345 71.4521 82.2723 72.3804 81.4783C73.4385 80.5763 73.8378 79.2455 74.6396 76.584L80.7486 55.028C81.5505 52.3665 81.9531 51.0357 81.5072 49.9019C81.1179 48.9046 77.4146 43.0034 76.2567 42.3492C74.9391 41.6028 75.8807 46.3193 72.0277 45.7253L30.8789 39.1445C27.0226 38.5506 25.096 38.252 23.469 38.5442C22.0349 38.8015 20.7639 39.3637 19.8356 40.1577C18.7775 41.0597 18.3782 42.3905 17.5763 45.052H17.5797Z" fill="white" stroke="#050505" stroke-width="1.90564" stroke-linejoin="round"/>
<path d="M13.2546 39.0176L7.14564 60.5735C6.34376 63.2351 5.94115 64.5658 6.38701 65.6997C6.7763 66.697 7.61147 67.5863 8.76937 68.2406C10.087 68.9869 12.0135 69.2823 15.8665 69.8762L57.0153 76.457C60.8717 77.051 62.7981 77.3495 64.4252 77.0573C65.8559 76.8001 67.1303 76.2379 68.0586 75.4439C69.1167 74.5419 69.516 73.2111 70.3179 70.5496L76.4268 48.9936C77.2287 46.3321 77.6313 45.0013 77.1854 43.8674C76.7962 42.8701 75.961 41.9809 74.8031 41.3266C73.4855 40.5802 71.559 40.2848 67.706 39.6909L26.5571 33.1101C22.7008 32.5162 20.7743 32.2176 19.1472 32.5098C17.7132 32.7671 16.4421 33.3292 15.5138 34.1233C14.4557 35.0253 14.0565 36.356 13.2546 39.0176Z" fill="url(#paint0_linear_507_4661)"/>
<path d="M75.1387 53.2686L11.9665 43.2926M30.3465 58.544L16.9508 56.4383M13.2575 39.0144L7.14857 60.5704C6.34669 63.2319 5.94408 64.5627 6.38994 65.6965C6.77923 66.6938 7.6144 67.5831 8.7723 68.2374C10.0899 68.9838 12.0164 69.2791 15.8694 69.8731L57.0182 76.4539C60.8746 77.0478 62.8011 77.3463 64.4281 77.0541C65.8589 76.7969 67.1332 76.2347 68.0616 75.4407C69.1196 74.5387 69.5189 73.2079 70.3208 70.5464L76.4297 48.9904C77.2316 46.3289 77.6342 44.9981 77.1884 43.8643C76.7991 42.867 75.9639 41.9777 74.806 41.3234C73.4884 40.577 71.5619 40.2817 67.7088 39.6877L26.5601 33.1069C22.7037 32.513 20.7772 32.2145 19.1502 32.5066C17.7161 32.7639 16.445 33.3261 15.5167 34.1201C14.4586 35.0221 14.0594 36.3529 13.2575 39.0144Z" stroke="black" stroke-width="1.90564" stroke-linecap="round" stroke-linejoin="round"/>
<path d="M54.2988 63.9514C54.3612 61.2648 51.2664 59.0203 47.3863 58.9381C43.5062 58.856 40.3101 60.9674 40.2477 63.654C40.1853 66.3406 43.2802 68.5851 47.1603 68.6672C51.0404 68.7493 54.2364 66.638 54.2988 63.9514Z" stroke="black" stroke-width="1.90564" stroke-linecap="round" stroke-linejoin="round"/>
<path d="M64.3906 65.5063C64.453 62.8197 61.3582 60.5752 57.4781 60.4931C53.598 60.411 50.4019 62.5224 50.3395 65.209C50.2771 67.8956 53.372 70.14 57.2521 70.2222C61.1322 70.3043 64.3282 68.1929 64.3906 65.5063Z" stroke="black" stroke-width="1.90564" stroke-linecap="round" stroke-linejoin="round"/>
<defs>
<linearGradient id="paint0_linear_507_4661" x1="6.20068" y1="54.7836" x2="77.3718" y2="54.7836" gradientUnits="userSpaceOnUse">
<stop stop-color="#C7EEE9"/>
<stop offset="0.23" stop-color="#EFF9EF"/>
<stop offset="0.38" stop-color="#E2F8F1"/>
<stop offset="0.57" stop-color="#EBCDF9"/>
<stop offset="0.71" stop-color="#EDF4E3"/>
<stop offset="0.83" stop-color="#C9EBFC"/>
<stop offset="1" stop-color="#D4D5EE"/>
</linearGradient>
</defs>
</svg>
