<svg width="287" height="122" viewBox="0 0 287 122" fill="none" xmlns="http://www.w3.org/2000/svg">
<rect x="19.7698" y="13.2784" width="215.251" height="97.7605" rx="7.02861" fill="#FDFDFD" stroke="black" stroke-width="0.879499"/>
<path d="M60.156 43.4817L60.156 51.4479C60.156 53.2403 59.678 54.5879 58.7221 55.4908C57.7661 56.3804 56.372 56.8251 54.5398 56.8251C52.7075 56.8251 51.3134 56.3804 50.3575 55.4908C49.4015 54.5879 48.9236 53.2403 48.9236 51.4479L48.9236 43.4817L51.6719 43.4817L51.6719 51.3284C51.6719 52.4304 51.9043 53.247 52.369 53.778C52.8469 54.3091 53.5705 54.5747 54.5398 54.5747C55.509 54.5747 56.226 54.3091 56.6907 53.778C57.1554 53.247 57.3877 52.4304 57.3877 51.3284L57.3877 43.4817L60.156 43.4817ZM68.1215 43.2825C69.3164 43.2825 70.3653 43.4883 71.2681 43.8999C72.171 44.3115 72.941 44.9222 73.5783 45.7321L72.0448 47.5046C71.5005 46.8142 70.903 46.3097 70.2524 45.991C69.6151 45.6591 68.8716 45.4931 68.0219 45.4931C67.1721 45.4931 66.5548 45.6525 66.1697 45.9711C65.7847 46.2765 65.5922 46.6482 65.5922 47.0864C65.5922 47.4449 65.7249 47.7502 65.9905 48.0025C66.2693 48.2415 66.7539 48.4406 67.4443 48.6L69.894 49.1576C71.1818 49.4497 72.1112 49.8879 72.6821 50.472C73.2531 51.043 73.5385 51.7865 73.5385 52.7026C73.5385 53.5656 73.3128 54.3091 72.8614 54.9331C72.41 55.5439 71.7793 56.0152 70.9694 56.3472C70.1595 56.6658 69.2301 56.8251 68.1812 56.8251C66.8137 56.8251 65.6121 56.5861 64.5765 56.1082C63.5409 55.6302 62.7243 55.0128 62.1269 54.256L63.6803 52.4039C64.1317 53.0412 64.7491 53.5722 65.5324 53.9971C66.3291 54.4087 67.212 54.6145 68.1812 54.6145C68.9911 54.6145 69.6151 54.4817 70.0533 54.2162C70.4914 53.9374 70.7105 53.5457 70.7105 53.0412C70.7105 52.7092 70.591 52.4171 70.352 52.1649C70.1263 51.9126 69.7014 51.7201 69.0774 51.5873L66.4087 50.9899C65.2403 50.7376 64.3375 50.326 63.7002 49.7551C63.0629 49.1842 62.7442 48.4075 62.7442 47.425C62.7442 46.6416 62.9567 45.9379 63.3815 45.3139C63.8064 44.6899 64.4172 44.1986 65.2138 43.8401C66.0237 43.4684 66.9929 43.2825 68.1215 43.2825ZM92.9556 43.4817L88.1759 56.626L84.9695 56.626L80.1698 43.4817L83.0775 43.4817L85.8458 51.8462L86.6025 54.4353L87.3394 51.8661L90.1276 43.4817L92.9556 43.4817ZM96.041 45.2342C94.9125 45.2342 94.3482 44.7496 94.3482 43.7804C94.3482 42.7979 94.9125 42.3066 96.041 42.3066C97.1696 42.3066 97.7338 42.7979 97.7338 43.7804C97.7338 44.7496 97.1696 45.2342 96.041 45.2342ZM97.3953 46.6682L97.3953 56.626L94.6668 56.626L94.6668 46.6682L97.3953 46.6682ZM100.288 56.626L100.288 46.6682L102.658 46.6682L102.837 48.6199C103.089 47.9428 103.467 47.4183 103.972 47.0466C104.49 46.6615 105.14 46.469 105.924 46.469C106.388 46.469 106.747 46.542 106.999 46.6881L106.68 48.9784C106.548 48.9385 106.382 48.9053 106.183 48.8788C105.997 48.839 105.751 48.819 105.446 48.819C105.034 48.819 104.642 48.9186 104.271 49.1178C103.912 49.3037 103.613 49.5958 103.374 49.9941C103.135 50.3791 103.016 50.8704 103.016 51.4678L103.016 56.626L100.288 56.626ZM115.031 46.6682L115.031 48.6996L111.845 48.6996L111.845 53.3797C111.845 53.8577 111.964 54.2095 112.203 54.4353C112.456 54.6477 112.794 54.7539 113.219 54.7539C113.564 54.7539 113.856 54.7074 114.095 54.6145C114.348 54.5083 114.573 54.3689 114.773 54.1963L115.211 56.0086C114.879 56.2609 114.474 56.46 113.996 56.6061C113.531 56.7521 113.033 56.8251 112.502 56.8251C111.506 56.8251 110.69 56.5994 110.053 56.148C109.429 55.6833 109.117 54.9066 109.117 53.8179L109.117 48.6996L107.284 48.6996L107.284 46.6682L109.117 46.6682L109.117 44.3779L111.845 43.6211L111.845 46.6682L115.031 46.6682ZM120.343 56.8251C119.679 56.8251 119.081 56.7056 118.55 56.4666C118.019 56.2277 117.594 55.8493 117.276 55.3315C116.97 54.8137 116.818 54.1299 116.818 53.2801L116.818 46.6682L119.546 46.6682L119.546 52.6229C119.546 53.393 119.705 53.9307 120.024 54.2361C120.343 54.5282 120.801 54.6742 121.398 54.6742C121.969 54.6742 122.474 54.4684 122.912 54.0569C123.363 53.632 123.589 52.9549 123.589 52.0255L123.589 46.6682L126.317 46.6682L126.317 56.626L123.888 56.626L123.788 54.8933C123.456 55.5439 122.998 56.0285 122.414 56.3472C121.83 56.6658 121.139 56.8251 120.343 56.8251ZM134.865 50.2729C134.865 49.702 134.699 49.2572 134.367 48.9385C134.048 48.6199 133.623 48.4606 133.092 48.4606C132.601 48.4606 132.169 48.5867 131.797 48.839C131.426 49.0912 131.154 49.5095 130.981 50.0936L128.651 49.3767C128.877 48.5004 129.368 47.7967 130.125 47.2656C130.895 46.7345 131.924 46.469 133.212 46.469C134.513 46.469 135.562 46.781 136.358 47.405C137.168 48.0158 137.573 48.9319 137.573 50.1534L137.573 54.1963C137.573 54.7008 137.812 54.9531 138.29 54.9531C138.516 54.9531 138.728 54.9199 138.927 54.8535L138.768 56.5463C138.423 56.7189 137.991 56.8052 137.473 56.8052C136.903 56.8052 136.405 56.6857 135.98 56.4467C135.568 56.2077 135.289 55.8493 135.143 55.3713C134.825 55.8493 134.367 56.2144 133.769 56.4666C133.185 56.7056 132.581 56.8251 131.957 56.8251C130.948 56.8251 130.144 56.5994 129.547 56.148C128.963 55.6833 128.671 55.0128 128.671 54.1365C128.671 53.393 128.91 52.7889 129.388 52.3242C129.866 51.8462 130.549 51.5209 131.439 51.3483L134.865 50.6513L134.865 50.2729ZM131.399 53.8776C131.399 54.2095 131.519 54.4618 131.758 54.6344C132.01 54.807 132.309 54.8933 132.654 54.8933C133.039 54.8933 133.397 54.8336 133.729 54.7141C134.061 54.5946 134.333 54.3954 134.546 54.1166C134.758 53.8245 134.865 53.4395 134.865 52.9615L134.865 52.3441L132.773 52.7623C132.322 52.8553 131.977 52.9814 131.738 53.1407C131.512 53.2868 131.399 53.5324 131.399 53.8776ZM143.313 42.3066L143.313 53.559C143.313 54.0237 143.393 54.349 143.552 54.5348C143.711 54.7207 143.977 54.8137 144.349 54.8137C144.574 54.8137 144.76 54.8004 144.906 54.7738C145.052 54.7473 145.238 54.6942 145.464 54.6145L145.225 56.4069C144.999 56.5397 144.714 56.6393 144.369 56.7056C144.037 56.7853 143.705 56.8251 143.373 56.8251C142.404 56.8251 141.693 56.5928 141.242 56.1281C140.804 55.6501 140.585 54.8933 140.585 53.8577L140.585 42.3066L143.313 42.3066ZM60.5941 77.626L57.7462 77.626L56.6508 74.4196L51.6122 74.4196L50.5168 77.626L47.7087 77.626L52.5084 64.4817L55.7945 64.4817L60.5941 77.626ZM52.2296 72.3882L56.0334 72.3882L54.1215 66.6525L52.2296 72.3882ZM66.5525 67.469C67.8802 67.469 68.9092 67.7545 69.6394 68.3254C70.3829 68.8963 70.8742 69.5867 71.1132 70.3966L68.564 71.3127C68.2984 70.1045 67.6412 69.5004 66.5923 69.5004C65.8355 69.5004 65.2447 69.7659 64.8198 70.297C64.4082 70.8281 64.2024 71.6181 64.2024 72.667C64.2024 73.7292 64.4149 74.5191 64.8397 75.0369C65.2779 75.5415 65.8687 75.7937 66.6122 75.7937C67.7673 75.7937 68.4577 75.2029 68.6835 74.0212L71.153 74.8179C70.9273 75.7074 70.4228 76.431 69.6394 76.9887C68.8693 77.5463 67.8669 77.8251 66.6321 77.8251C65.5965 77.8251 64.6871 77.6193 63.9037 77.2077C63.1336 76.7962 62.5362 76.2053 62.1113 75.4353C61.6864 74.6652 61.474 73.7358 61.474 72.6471C61.474 71.5583 61.6864 70.6289 62.1113 69.8589C62.5494 69.0888 63.1469 68.498 63.9037 68.0864C64.6738 67.6748 65.5567 67.469 66.5525 67.469ZM77.7939 67.469C79.1216 67.469 80.1506 67.7545 80.8808 68.3254C81.6244 68.8963 82.1156 69.5867 82.3546 70.3966L79.8054 71.3127C79.5399 70.1045 78.8826 69.5004 77.8338 69.5004C77.077 69.5004 76.4861 69.7659 76.0613 70.297C75.6497 70.8281 75.4439 71.6181 75.4439 72.667C75.4439 73.7291 75.6563 74.5191 76.0812 75.0369C76.5193 75.5415 77.1102 75.7937 77.8537 75.7937C79.0088 75.7937 79.6992 75.2029 79.9249 74.0212L82.3944 74.8179C82.1687 75.7074 81.6642 76.431 80.8808 76.9887C80.1108 77.5463 79.1084 77.8251 77.8736 77.8251C76.838 77.8251 75.9285 77.6193 75.1451 77.2077C74.3751 76.7962 73.7776 76.2053 73.3527 75.4353C72.9279 74.6652 72.7154 73.7358 72.7154 72.6471C72.7154 71.5583 72.9279 70.6289 73.3527 69.8589C73.7909 69.0888 74.3884 68.498 75.1451 68.0864C75.9152 67.6748 76.7981 67.469 77.7939 67.469ZM89.0553 67.469C90.0511 67.469 90.934 67.6748 91.7041 68.0864C92.4741 68.498 93.0716 69.0888 93.4965 69.8589C93.9346 70.6289 94.1537 71.5583 94.1537 72.6471C94.1537 73.7358 93.9346 74.6652 93.4965 75.4353C93.0716 76.2053 92.4741 76.7962 91.7041 77.2077C90.934 77.6193 90.0511 77.8251 89.0553 77.8251C88.0462 77.8251 87.1567 77.6193 86.3866 77.2077C85.6298 76.7962 85.0323 76.2053 84.5942 75.4353C84.1693 74.6652 83.9569 73.7358 83.9569 72.6471C83.9569 71.5583 84.1693 70.6289 84.5942 69.8589C85.0323 69.0888 85.6298 68.498 86.3866 68.0864C87.1567 67.6748 88.0462 67.469 89.0553 67.469ZM89.0553 69.5004C88.3118 69.5004 87.7276 69.7659 87.3027 70.297C86.8911 70.8148 86.6853 71.5982 86.6853 72.6471C86.6853 73.696 86.8911 74.4859 87.3027 75.017C87.7276 75.5348 88.3118 75.7937 89.0553 75.7937C89.7855 75.7937 90.3564 75.5348 90.768 75.017C91.1929 74.4859 91.4053 73.696 91.4053 72.6471C91.4053 71.5982 91.1929 70.8148 90.768 70.297C90.3564 69.7659 89.7855 69.5004 89.0553 69.5004ZM99.902 77.8251C99.2381 77.8251 98.6407 77.7056 98.1096 77.4667C97.5785 77.2277 97.1536 76.8493 96.835 76.3315C96.5296 75.8137 96.3769 75.1299 96.3769 74.2801L96.3769 67.6682L99.1054 67.6682L99.1054 73.6229C99.1054 74.393 99.2647 74.9307 99.5833 75.2361C99.902 75.5282 100.36 75.6742 100.958 75.6742C101.528 75.6742 102.033 75.4684 102.471 75.0569C102.923 74.632 103.148 73.9549 103.148 73.0255L103.148 67.6682L105.877 67.6682L105.877 77.626L103.447 77.626L103.347 75.8933C103.015 76.5439 102.557 77.0285 101.973 77.3472C101.389 77.6658 100.699 77.8251 99.902 77.8251ZM108.748 77.626L108.748 67.6682L111.197 67.6682L111.297 69.5402C111.602 68.8498 112.047 68.332 112.631 67.9868C113.229 67.6416 113.913 67.469 114.683 67.469C115.718 67.469 116.575 67.7744 117.252 68.3851C117.929 68.9826 118.267 69.8854 118.267 71.0936L118.267 77.626L115.539 77.626L115.539 71.8704C115.539 71.0206 115.366 70.4364 115.021 70.1178C114.689 69.7859 114.264 69.6199 113.747 69.6199C113.375 69.6199 113.01 69.7128 112.651 69.8987C112.306 70.0713 112.021 70.3568 111.795 70.7551C111.582 71.1534 111.476 71.6845 111.476 72.3483L111.476 77.626L108.748 77.626ZM127.712 67.6682L127.712 69.6996L124.526 69.6996L124.526 74.3797C124.526 74.8577 124.645 75.2095 124.884 75.4353C125.136 75.6477 125.475 75.7539 125.9 75.7539C126.245 75.7539 126.537 75.7074 126.776 75.6145C127.028 75.5083 127.254 75.3689 127.453 75.1963L127.891 77.0086C127.559 77.2609 127.155 77.46 126.677 77.6061C126.212 77.7521 125.714 77.8251 125.183 77.8251C124.187 77.8251 123.371 77.5994 122.733 77.148C122.109 76.6833 121.797 75.9066 121.797 74.8179L121.797 69.6996L119.965 69.6996L119.965 67.6682L121.797 67.6682L121.797 65.3779L124.526 64.6211L124.526 67.6682L127.712 67.6682Z" fill="black"/>
<g style="mix-blend-mode:multiply">
<path d="M258.217 51.3789C258.116 50.9939 257.881 50.637 257.54 50.3447C257.151 50.013 256.569 49.805 255.403 49.3863L236.094 42.4527C235.755 42.3319 235.586 42.2701 235.411 42.2279C235.255 42.1886 235.094 42.1633 234.932 42.1464C234.75 42.1267 234.565 42.1267 234.194 42.1267L213.013 42.1099C211.733 42.1099 211.092 42.1099 210.569 42.2841C210.106 42.4387 209.706 42.686 209.418 43.0036C209.088 43.3634 208.958 43.8439 208.699 44.808L208.064 47.1547C207.744 48.3323 207.585 48.9225 207.762 49.4228C207.918 49.8641 208.249 50.2575 208.709 50.547C209.233 50.8758 209.997 51.0079 211.532 51.2721L212.526 51.4436C211.338 55.7099 207.069 72.0615 206.173 75.8669L205.125 75.687C203.594 75.4229 202.827 75.2936 202.179 75.4229C201.61 75.5353 201.105 75.7854 200.734 76.1367C200.314 76.5358 200.155 77.1232 199.835 78.3008L199.38 79.9843C199.06 81.1619 198.901 81.7521 199.079 82.2524C199.235 82.6936 199.565 83.0871 200.026 83.3766C200.549 83.7054 201.314 83.8375 202.848 84.1017L243.338 91.0493C244.87 91.3135 245.637 91.4428 246.285 91.3135C246.854 91.2011 247.359 90.9509 247.729 90.5996C248.15 90.2005 248.309 89.6131 248.629 88.4355L249.084 86.752C249.404 85.5744 249.562 84.9842 249.385 84.4839C249.229 84.0427 248.898 83.6492 248.438 83.3597C247.914 83.0309 247.15 82.8988 245.616 82.6346L244.804 82.4941L251.189 58.0764L252.022 58.2197C253.554 58.4839 254.321 58.6132 254.969 58.4839C255.538 58.3715 256.043 58.1213 256.413 57.77C256.834 57.3709 256.992 56.7835 257.312 55.6059L257.947 53.2592C258.209 52.2952 258.339 51.8146 258.225 51.3789H258.217Z" fill="#050505"/>
</g>
<path d="M256.365 45.7576C256.264 45.3726 254.027 40.1703 253.683 39.878C253.294 39.5464 250.882 39.4536 249.715 39.0348L234.239 36.8314C233.9 36.7106 233.731 36.6487 233.557 36.6066C233.401 36.5672 233.239 36.5419 233.078 36.5251C232.895 36.5054 232.71 36.5054 232.34 36.5054L211.158 36.4885C209.878 36.4885 209.238 36.4885 208.714 36.6628C208.251 36.8174 207.852 37.0647 207.564 37.3823C207.233 37.742 207.103 38.2226 206.844 39.1866L203.429 38.4727C203.429 38.4727 206.691 44.4367 206.868 44.9369C207.024 45.3782 206.394 44.6362 206.855 44.9257C207.378 45.2545 208.143 45.3866 209.677 45.6508L210.671 45.8222C209.484 50.0886 205.215 66.4401 204.318 70.2456L203.271 70.0657C201.739 69.8015 200.972 69.6722 200.324 69.8015C199.755 69.9139 201.155 66.7915 200.784 67.1428C200.364 67.5419 198.195 65.4031 197.875 66.5807L194.701 71.3585C194.899 71.7801 197.711 77.4658 198.171 77.7553C198.695 78.0841 199.459 78.2162 200.993 78.4804L241.484 85.428C243.015 85.6921 243.782 85.8214 244.43 85.6921C244.999 85.5797 245.504 85.3296 245.875 84.9783C246.295 84.5792 246.454 83.9918 246.774 82.8142L247.229 81.1307C247.549 79.9531 247.708 79.3629 247.53 78.8626C247.374 78.4214 244.626 71.9291 244.166 71.6396C243.642 71.3108 244.959 72.7638 244.166 71.6396L249.334 52.4578L250.168 52.6012C251.699 52.8654 252.466 52.9947 253.114 52.8654C253.683 52.753 254.188 52.5028 254.558 52.1515C254.979 51.7524 255.138 51.165 255.458 49.9874L256.093 47.6406C256.354 46.6766 256.484 46.196 256.37 45.7604L256.365 45.7576Z" fill="white"/>
<path d="M244.166 71.6396C244.626 71.9291 247.374 78.4214 247.53 78.8626C247.708 79.3629 247.549 79.9531 247.229 81.1307L246.774 82.8142C246.454 83.9918 246.295 84.5792 245.875 84.9783C245.504 85.3296 244.999 85.5797 244.43 85.6921C243.782 85.8214 243.015 85.6921 241.484 85.428L200.993 78.4804C199.459 78.2162 198.695 78.0841 198.171 77.7553C197.711 77.4658 194.899 71.7801 194.701 71.3585L197.875 66.5807C198.195 65.4031 200.364 67.5419 200.784 67.1428C201.155 66.7915 199.755 69.9139 200.324 69.8015C200.972 69.6722 201.739 69.8015 203.271 70.0657L204.318 70.2456C205.215 66.4401 209.484 50.0886 210.671 45.8222L209.677 45.6508C208.143 45.3866 207.378 45.2545 206.855 44.9257C206.394 44.6362 207.024 45.3782 206.868 44.9369C206.691 44.4367 203.429 38.4727 203.429 38.4727L206.844 39.1866C207.103 38.2226 207.233 37.742 207.564 37.3823C207.852 37.0647 208.251 36.8174 208.714 36.6628C209.238 36.4885 209.878 36.4885 211.158 36.4885L232.34 36.5054C232.71 36.5054 232.895 36.5054 233.078 36.5251C233.239 36.5419 233.401 36.5672 233.557 36.6066C233.731 36.6487 233.9 36.7106 234.239 36.8314L249.715 39.0348C250.882 39.4536 253.294 39.5464 253.683 39.878C254.027 40.1703 256.264 45.3726 256.365 45.7576L256.37 45.7604C256.484 46.196 256.354 46.6766 256.093 47.6406L255.458 49.9874C255.138 51.165 254.979 51.7524 254.558 52.1515C254.188 52.5028 253.683 52.753 253.114 52.8654C252.466 52.9947 251.699 52.8654 250.168 52.6012L249.334 52.4578L244.166 71.6396ZM244.166 71.6396C243.642 71.3108 244.959 72.7638 244.166 71.6396Z" stroke="#050505" stroke-width="1.74327" stroke-linejoin="round"/>
<path d="M253.587 39.8555C253.487 39.4705 253.251 39.1135 252.91 38.8212C252.521 38.4896 251.939 38.2816 250.773 37.8628L231.464 30.9293C231.125 30.8085 230.956 30.7466 230.781 30.7045C230.625 30.6651 230.464 30.6398 230.303 30.623C230.12 30.6033 229.935 30.6033 229.565 30.6033L208.383 30.5864C207.103 30.5864 206.463 30.5864 205.939 30.7607C205.476 30.9153 205.077 31.1626 204.788 31.4802C204.458 31.8399 204.328 32.3205 204.069 33.2845L203.434 35.6313C203.114 36.8089 202.955 37.3991 203.132 37.8994C203.289 38.3406 203.619 38.7341 204.079 39.0236C204.603 39.3524 205.368 39.4845 206.902 39.7487L207.896 39.9201C206.709 44.1865 202.439 60.538 201.543 64.3435L200.495 64.1636C198.964 63.8994 198.197 63.7701 197.549 63.8994C196.98 64.0118 196.475 64.262 196.105 64.6133C195.684 65.0124 195.525 65.5998 195.205 66.7774L194.75 68.4609C194.43 69.6385 194.271 70.2287 194.449 70.729C194.605 71.1702 194.935 71.5637 195.396 71.8532C195.919 72.182 196.684 72.3141 198.218 72.5783L238.709 79.5259C240.24 79.79 241.007 79.9193 241.655 79.79C242.224 79.6776 242.729 79.4275 243.099 79.0762C243.52 78.6771 243.679 78.0897 243.999 76.9121L244.454 75.2286C244.774 74.051 244.932 73.4608 244.755 72.9605C244.599 72.5193 244.269 72.1258 243.808 71.8363C243.285 71.5075 242.52 71.3754 240.986 71.1112L240.174 70.9707L246.559 46.5529L247.392 46.6963C248.924 46.9605 249.691 47.0897 250.339 46.9605C250.908 46.848 251.413 46.5979 251.783 46.2466C252.204 45.8475 252.362 45.2601 252.682 44.0825L253.317 41.7357C253.579 40.7717 253.709 40.2911 253.595 39.8555H253.587Z" fill="url(#paint0_linear_507_4702)"/>
<path d="M207.992 39.937L201.585 64.3491M220.302 42.0477L213.895 66.4598M233.979 44.3945L227.573 68.8066M246.289 46.5052L239.883 70.9173M195.197 66.7718L194.742 68.4553C194.422 69.6329 194.264 70.2231 194.441 70.7233C194.597 71.1646 194.928 71.5581 195.388 71.8475C195.912 72.1764 196.676 72.3085 198.21 72.5727L238.701 79.5202C240.232 79.7844 240.999 79.9137 241.647 79.7844C242.216 79.672 242.721 79.4219 243.092 79.0706C243.512 78.6715 243.671 78.0841 243.991 76.9065L244.446 75.223C244.766 74.0454 244.925 73.4552 244.747 72.9549C244.591 72.5136 244.261 72.1202 243.8 71.8307C243.277 71.5018 242.512 71.3698 240.978 71.1056L200.488 64.158C198.956 63.8938 198.189 63.7645 197.541 63.8938C196.972 64.0062 196.467 64.2563 196.097 64.6077C195.676 65.0068 195.517 65.5942 195.197 66.7718ZM229.565 30.6033L208.383 30.5864C207.103 30.5864 206.463 30.5864 205.939 30.7607C205.476 30.9153 205.077 31.1626 204.788 31.4802C204.458 31.8399 204.328 32.3205 204.069 33.2845L203.434 35.6313C203.114 36.8089 202.955 37.3991 203.133 37.8994C203.289 38.3406 203.619 38.7341 204.08 39.0236C204.603 39.3524 205.368 39.4845 206.902 39.7487L247.392 46.6963C248.924 46.9605 249.691 47.0897 250.339 46.9605C250.908 46.848 251.413 46.5979 251.783 46.2466C252.204 45.8475 252.363 45.2601 252.683 44.0825L253.317 41.7357C253.579 40.7717 253.709 40.2911 253.595 39.8555C253.495 39.4705 253.259 39.1135 252.918 38.8212C252.529 38.4896 251.947 38.2816 250.781 37.8628L231.472 30.9293C231.133 30.8085 230.964 30.7466 230.789 30.7045C230.633 30.6651 230.472 30.6398 230.311 30.623C230.128 30.6033 229.943 30.6033 229.573 30.6033H229.565Z" stroke="black" stroke-width="1.74327" stroke-linecap="round" stroke-linejoin="round"/>
<path d="M246.673 47.4272L249.453 52.5255" stroke="#050505" stroke-width="1.74327" stroke-miterlimit="10"/>
<path d="M241.384 79.748L244.428 85.6895" stroke="#050505" stroke-width="1.74327" stroke-miterlimit="10"/>
<path d="M231.568 35.0447L229.169 34.6344C228.375 34.4967 227.595 34.8817 227.431 35.4944C227.264 36.1043 227.775 36.7113 228.571 36.8462L229.531 37.0121C230.325 37.1498 230.835 37.754 230.671 38.3639C230.507 38.9738 229.727 39.3588 228.933 39.2239L226.534 38.8136" stroke="black" stroke-width="1.74327" stroke-linecap="round" stroke-linejoin="round"/>
<path d="M229.851 33.9761L229.65 34.7124" stroke="black" stroke-width="1.74327" stroke-linecap="round" stroke-linejoin="round"/>
<path d="M228.452 39.1392L228.254 39.8755" stroke="black" stroke-width="1.74327" stroke-linecap="round" stroke-linejoin="round"/>
<defs>
<linearGradient id="paint0_linear_507_4702" x1="194.372" y1="55.2121" x2="253.629" y2="55.2121" gradientUnits="userSpaceOnUse">
<stop stop-color="#C7EEE9"/>
<stop offset="0.23" stop-color="#EFF9EF"/>
<stop offset="0.38" stop-color="#E2F8F1"/>
<stop offset="0.57" stop-color="#EBCDF9"/>
<stop offset="0.71" stop-color="#EDF4E3"/>
<stop offset="0.83" stop-color="#C9EBFC"/>
<stop offset="1" stop-color="#D4D5EE"/>
</linearGradient>
</defs>
</svg>
