<svg width="287" height="122" viewBox="0 0 287 122" fill="none" xmlns="http://www.w3.org/2000/svg">
<rect x="19.6155" y="12.6656" width="208.911" height="97.7605" rx="7.02861" fill="#FDFDFD" stroke="black" stroke-width="0.879499"/>
<path d="M60.184 54.8979C61.6577 54.8979 62.8195 55.2564 63.6692 55.9734C64.5322 56.6903 64.9637 57.6529 64.9637 58.8611C64.9637 59.8304 64.7181 60.6336 64.2269 61.2709C63.7489 61.8949 63.0717 62.3331 62.1955 62.5854L65.7404 68.0422L62.6535 68.0422L59.5666 63.0036L57.0971 63.0036L57.0971 68.0422L54.3885 68.0422L54.3885 54.8979L60.184 54.8979ZM59.8653 60.9124C61.3922 60.9124 62.1556 60.2751 62.1556 59.0005C62.1556 57.7259 61.3922 57.0886 59.8653 57.0886L57.0971 57.0886L57.0971 60.9124L59.8653 60.9124ZM72.0526 68.2414C70.4859 68.2414 69.2312 67.79 68.2885 66.8871C67.3459 65.971 66.8745 64.6964 66.8745 63.0633C66.8745 61.9746 67.087 61.0452 67.5118 60.2751C67.9367 59.5051 68.5275 58.9142 69.2843 58.5026C70.0544 58.0911 70.9307 57.8853 71.9132 57.8853C72.9223 57.8853 73.7786 58.0911 74.4823 58.5026C75.186 58.901 75.7237 59.452 76.0955 60.1556C76.4672 60.8461 76.6531 61.636 76.6531 62.5256C76.6531 62.7911 76.6465 63.0434 76.6332 63.2824C76.6199 63.5214 76.6 63.7338 76.5735 63.9197L69.5432 63.9197C69.6495 64.6898 69.915 65.2673 70.3399 65.6524C70.778 66.0241 71.3423 66.21 72.0327 66.21C72.6169 66.21 73.0882 66.0971 73.4467 65.8714C73.8052 65.6457 74.084 65.3337 74.2832 64.9354L76.454 65.7719C76.1353 66.5552 75.5777 67.1659 74.781 67.6041C73.9844 68.029 73.0749 68.2414 72.0526 68.2414ZM71.8933 59.8967C70.6054 59.8967 69.8287 60.6071 69.5631 62.0277L74.0442 62.0277C73.9645 61.3373 73.7388 60.8129 73.367 60.4544C73.0086 60.0826 72.5173 59.8967 71.8933 59.8967ZM78.9654 68.0422L78.9654 58.0844L81.415 58.0844L81.5146 59.8768C81.8465 59.213 82.2979 58.7151 82.8688 58.3832C83.453 58.0512 84.0969 57.8853 84.8006 57.8853C85.5176 57.8853 86.1615 58.0512 86.7324 58.3832C87.3166 58.7018 87.7548 59.1931 88.0469 59.8569C88.3523 59.1931 88.8236 58.7018 89.4609 58.3832C90.0982 58.0512 90.7554 57.8853 91.4325 57.8853C92.0831 57.8853 92.6739 58.018 93.205 58.2836C93.7494 58.5491 94.1809 58.9474 94.4995 59.4785C94.8182 60.0096 94.9775 60.6867 94.9775 61.5099L94.9775 68.0422L92.2491 68.0422L92.2491 62.0476C92.2491 61.3174 92.0831 60.7996 91.7512 60.4942C91.4325 60.1888 91.0276 60.0362 90.5363 60.0362C89.9256 60.0362 89.4078 60.2619 88.9829 60.7133C88.558 61.1514 88.3456 61.8086 88.3456 62.6849L88.3456 68.0422L85.6172 68.0422L85.6172 62.0476C85.6172 61.3174 85.4512 60.7996 85.1193 60.4942C84.8006 60.1888 84.389 60.0362 83.8845 60.0362C83.5393 60.0362 83.1941 60.1291 82.8489 60.315C82.517 60.5008 82.2382 60.7929 82.0124 61.1913C81.8 61.5896 81.6938 62.114 81.6938 62.7646L81.6938 68.0422L78.9654 68.0422ZM102.333 57.8853C103.328 57.8853 104.211 58.0911 104.981 58.5026C105.751 58.9142 106.349 59.5051 106.774 60.2751C107.212 61.0452 107.431 61.9746 107.431 63.0633C107.431 64.152 107.212 65.0814 106.774 65.8515C106.349 66.6216 105.751 67.2124 104.981 67.624C104.211 68.0356 103.328 68.2414 102.333 68.2414C101.324 68.2414 100.434 68.0356 99.6639 67.624C98.9071 67.2124 98.3097 66.6216 97.8715 65.8515C97.4466 65.0814 97.2342 64.152 97.2342 63.0633C97.2342 61.9746 97.4466 61.0452 97.8715 60.2751C98.3097 59.5051 98.9071 58.9142 99.6639 58.5026C100.434 58.0911 101.324 57.8853 102.333 57.8853ZM102.333 59.9167C101.589 59.9167 101.005 60.1822 100.58 60.7133C100.168 61.2311 99.9627 62.0144 99.9627 63.0633C99.9627 64.1122 100.168 64.9022 100.58 65.4333C101.005 65.9511 101.589 66.21 102.333 66.21C103.063 66.21 103.634 65.9511 104.045 65.4333C104.47 64.9022 104.683 64.1122 104.683 63.0633C104.683 62.0144 104.47 61.2311 104.045 60.7133C103.634 60.1822 103.063 59.9167 102.333 59.9167ZM116.309 58.0844L116.309 60.1158L113.122 60.1158L113.122 64.796C113.122 65.274 113.242 65.6258 113.481 65.8515C113.733 66.0639 114.072 66.1702 114.497 66.1702C114.842 66.1702 115.134 66.1237 115.373 66.0308C115.625 65.9245 115.851 65.7851 116.05 65.6125L116.488 67.4249C116.156 67.6771 115.751 67.8763 115.273 68.0223C114.809 68.1684 114.311 68.2414 113.78 68.2414C112.784 68.2414 111.967 68.0157 111.33 67.5643C110.706 67.0996 110.394 66.3229 110.394 65.2341L110.394 60.1158L108.562 60.1158L108.562 58.0844L110.394 58.0844L110.394 55.7941L113.122 55.0373L113.122 58.0844L116.309 58.0844ZM122.775 68.2414C121.209 68.2414 119.954 67.79 119.011 66.8871C118.069 65.971 117.597 64.6964 117.597 63.0633C117.597 61.9746 117.81 61.0452 118.234 60.2751C118.659 59.5051 119.25 58.9142 120.007 58.5026C120.777 58.0911 121.653 57.8853 122.636 57.8853C123.645 57.8853 124.501 58.0911 125.205 58.5026C125.909 58.901 126.446 59.452 126.818 60.1556C127.19 60.8461 127.376 61.636 127.376 62.5256C127.376 62.7911 127.369 63.0434 127.356 63.2824C127.343 63.5214 127.323 63.7338 127.296 63.9197L120.266 63.9197C120.372 64.6898 120.638 65.2673 121.062 65.6524C121.501 66.0241 122.065 66.21 122.755 66.21C123.34 66.21 123.811 66.0971 124.169 65.8714C124.528 65.6457 124.807 65.3337 125.006 64.9354L127.177 65.7719C126.858 66.5552 126.3 67.1659 125.504 67.6041C124.707 68.029 123.798 68.2414 122.775 68.2414ZM122.616 59.8967C121.328 59.8967 120.551 60.6071 120.286 62.0277L124.767 62.0277C124.687 61.3373 124.461 60.8129 124.09 60.4544C123.731 60.0826 123.24 59.8967 122.616 59.8967ZM138.155 68.0422L134.331 54.8979L137.259 54.8979L139.848 65.7519L142.476 54.8979L145.105 54.8979L147.774 65.7519L150.343 54.8979L153.151 54.8979L149.327 68.0422L146.241 68.0422L144.408 60.8726L143.791 57.7658L143.751 57.7658L143.134 60.8726L141.321 68.0422L138.155 68.0422ZM158.618 57.8853C159.613 57.8853 160.496 58.0911 161.266 58.5026C162.036 58.9142 162.634 59.5051 163.059 60.2751C163.497 61.0452 163.716 61.9746 163.716 63.0633C163.716 64.152 163.497 65.0814 163.059 65.8515C162.634 66.6216 162.036 67.2124 161.266 67.624C160.496 68.0356 159.613 68.2414 158.618 68.2414C157.609 68.2414 156.719 68.0356 155.949 67.624C155.192 67.2124 154.595 66.6216 154.157 65.8515C153.732 65.0814 153.519 64.152 153.519 63.0633C153.519 61.9746 153.732 61.0452 154.157 60.2751C154.595 59.5051 155.192 58.9142 155.949 58.5026C156.719 58.0911 157.609 57.8853 158.618 57.8853ZM158.618 59.9167C157.874 59.9167 157.29 60.1822 156.865 60.7133C156.453 61.2311 156.248 62.0144 156.248 63.0633C156.248 64.1122 156.453 64.9022 156.865 65.4333C157.29 65.9511 157.874 66.21 158.618 66.21C159.348 66.21 159.919 65.9511 160.33 65.4333C160.755 64.9022 160.968 64.1122 160.968 63.0633C160.968 62.0144 160.755 61.2311 160.33 60.7133C159.919 60.1822 159.348 59.9167 158.618 59.9167ZM165.999 68.0422L165.999 58.0844L168.369 58.0844L168.548 60.0361C168.8 59.359 169.179 58.8346 169.683 58.4628C170.201 58.0778 170.852 57.8853 171.635 57.8853C172.1 57.8853 172.458 57.9583 172.711 58.1043L172.392 60.3946C172.259 60.3548 172.093 60.3216 171.894 60.2951C171.708 60.2552 171.463 60.2353 171.157 60.2353C170.746 60.2353 170.354 60.3349 169.982 60.534C169.624 60.7199 169.325 61.012 169.086 61.4103C168.847 61.7954 168.727 62.2866 168.727 62.8841L168.727 68.0422L165.999 68.0422ZM177.129 53.7229L177.129 62.6252L181.431 58.0844L184.538 58.0844L180.794 61.9879L184.777 68.0422L181.69 68.0422L178.942 63.6409L177.129 65.5727L177.129 68.0422L174.401 68.0422L174.401 53.7229L177.129 53.7229Z" fill="black"/>
<g style="mix-blend-mode:multiply">
<path d="M213.814 95.6221L235.282 99.0888C238.961 99.6843 240.802 99.982 242.356 99.6877C243.724 99.431 244.939 98.8664 245.826 98.0724C246.835 97.1724 247.219 95.8411 247.982 93.1786L260.456 47.5088C261.222 44.8463 261.606 43.5151 261.181 42.3823C260.808 41.3865 260.011 40.4967 258.909 39.8396C257.653 39.0936 255.812 38.7958 252.133 38.2038L230.665 34.7371C226.986 34.1416 225.145 33.8473 223.591 34.1382C222.223 34.3948 221.011 34.9595 220.121 35.7535C219.112 36.6535 218.728 37.9848 217.965 40.6473L205.491 86.317C204.725 88.9795 204.341 90.3108 204.766 91.4435C205.139 92.4394 205.936 93.3292 207.041 93.9863C208.297 94.7323 210.139 95.03 213.817 95.6221H213.814Z" fill="#050505"/>
</g>
<path d="M210.32 89.9033L231.787 93.3701C235.466 93.9655 237.308 94.2633 238.861 93.969C240.23 93.7123 241.445 93.1476 242.331 92.3537C243.341 91.4536 243.724 90.1224 244.487 87.4599L256.961 41.7901C257.728 39.1276 258.111 37.7963 257.687 36.6636C257.314 35.6677 253.067 29.6959 251.962 29.0423C250.706 28.2962 252.317 33.0805 248.635 32.4884L227.167 29.0217C223.489 28.4262 221.647 28.1319 220.094 28.4228C218.725 28.6795 217.513 29.2442 216.624 30.0381C215.614 30.9382 215.231 32.2694 214.468 34.9319L201.993 80.6017C201.227 83.2642 196.785 79.2465 197.209 80.3792C197.582 81.3751 202.438 87.6139 203.544 88.2709C204.8 89.017 206.641 89.3147 210.32 89.9068V89.9033Z" fill="white" stroke="#050505" stroke-width="2.05334" stroke-linejoin="round"/>
<path d="M205.799 83.7947L227.267 87.2614C230.946 87.8569 232.787 88.1546 234.341 87.8603C235.71 87.6037 236.925 87.039 237.811 86.245C238.821 85.345 239.204 84.0137 239.967 81.3512L252.441 35.6815C253.208 33.019 253.591 31.6877 253.167 30.5549C252.794 29.5591 251.996 28.6693 250.894 28.0122C249.638 27.2662 247.797 26.9684 244.118 26.3764L222.651 22.9097C218.972 22.3142 217.13 22.0199 215.577 22.3108C214.208 22.5674 212.996 23.1321 212.107 23.9261C211.097 24.8261 210.714 26.1574 209.951 28.8199L197.477 74.4896C196.71 77.1521 196.327 78.4834 196.751 79.6161C197.124 80.612 197.921 81.5018 199.027 82.1589C200.283 82.9049 202.124 83.2027 205.803 83.7947H205.799Z" fill="url(#paint0_linear_507_4687)"/>
<path d="M225.094 28.813L239.769 31.1812M205.799 83.7947L227.267 87.2614C230.946 87.8569 232.787 88.1546 234.341 87.8603C235.71 87.6037 236.925 87.039 237.811 86.245C238.821 85.345 239.204 84.0137 239.967 81.3512L252.441 35.6815C253.208 33.019 253.591 31.6877 253.167 30.5549C252.794 29.5591 251.996 28.6693 250.894 28.0122C249.638 27.2662 247.797 26.9684 244.118 26.3764L222.651 22.9097C218.972 22.3142 217.13 22.0199 215.577 22.3108C214.208 22.5674 212.996 23.1321 212.107 23.9261C211.097 24.8261 210.714 26.1574 209.951 28.8199L197.477 74.4896C196.71 77.1521 196.327 78.4834 196.751 79.6162C197.124 80.612 197.921 81.5018 199.027 82.1589C200.283 82.9049 202.124 83.2027 205.803 83.7947H205.799ZM222.428 78.6134C222.038 79.9652 220.211 80.8139 218.345 80.5128C216.48 80.2116 215.279 78.8701 215.669 77.5217C216.059 76.17 217.887 75.3212 219.752 75.6224C221.617 75.9236 222.818 77.2651 222.428 78.6134Z" stroke="black" stroke-width="2.05334" stroke-linecap="round" stroke-linejoin="round"/>
<path d="M234.194 47.5291L225.915 46.191C223.171 45.7495 220.484 46.9987 219.916 48.9836C219.344 50.9685 221.107 52.9362 223.848 53.3777L227.161 53.9116C229.906 54.353 231.665 56.3243 231.093 58.3057C230.522 60.2872 227.835 61.5398 225.094 61.0983L216.815 59.7602" stroke="black" stroke-width="2.05334" stroke-linecap="round" stroke-linejoin="round"/>
<path d="M228.259 44.0625L227.571 46.4581" stroke="black" stroke-width="2.05334" stroke-linecap="round" stroke-linejoin="round"/>
<path d="M223.434 60.8315L222.746 63.2305" stroke="black" stroke-width="2.05334" stroke-linecap="round" stroke-linejoin="round"/>
<defs>
<linearGradient id="paint0_linear_507_4687" x1="196.573" y1="55.0855" x2="253.345" y2="55.0855" gradientUnits="userSpaceOnUse">
<stop stop-color="#C7EEE9"/>
<stop offset="0.23" stop-color="#EFF9EF"/>
<stop offset="0.38" stop-color="#E2F8F1"/>
<stop offset="0.57" stop-color="#EBCDF9"/>
<stop offset="0.71" stop-color="#EDF4E3"/>
<stop offset="0.83" stop-color="#C9EBFC"/>
<stop offset="1" stop-color="#D4D5EE"/>
</linearGradient>
</defs>
</svg>
