<svg width="33" height="33" viewBox="0 0 33 33" fill="none" xmlns="http://www.w3.org/2000/svg">
<path fill-rule="evenodd" clip-rule="evenodd" d="M23.5468 3.22021C24.0274 3.41013 24.3167 3.90297 24.2484 4.41514L23.0849 13.1415L28.4355 13.1414C28.734 13.1414 29.0301 13.1414 29.2723 13.1635C29.5111 13.1853 29.9117 13.2414 30.2659 13.5148C30.687 13.8398 30.9419 14.3351 30.9616 14.8667C30.9782 15.3138 30.791 15.6724 30.67 15.8794C30.5472 16.0893 30.3751 16.3303 30.2015 16.5731L21.3821 28.9203C21.0818 29.3408 20.5336 29.5026 20.0531 29.3127C19.5726 29.1228 19.2832 28.6299 19.3515 28.1178L20.515 19.3915L15.1644 19.3915C14.8659 19.3915 14.5698 19.3916 14.3277 19.3694C14.0888 19.3476 13.6882 19.2915 13.3341 19.0181C12.913 18.6931 12.658 18.1978 12.6383 17.6662C12.6217 17.2191 12.8089 16.8605 12.93 16.6535C13.0527 16.4436 13.2249 16.2027 13.3984 15.9598L22.2179 3.61256C22.5182 3.1921 23.0663 3.03028 23.5468 3.22021ZM15.3194 17.1415H21.8C22.1243 17.1415 22.4328 17.2814 22.6464 17.5254C22.86 17.7694 22.958 18.0937 22.9151 18.4151L22.1794 23.9331L28.2805 15.3915H21.8C21.4757 15.3915 21.1672 15.2515 20.9535 15.0075C20.7399 14.7635 20.642 14.4392 20.6848 14.1178L21.4206 8.59981L15.3194 17.1415ZM4.67497 8.93312C4.67497 8.3118 5.17865 7.80812 5.79997 7.80812H12.4666C13.088 7.80812 13.5916 8.3118 13.5916 8.93312C13.5916 9.55444 13.088 10.0581 12.4666 10.0581H5.79997C5.17865 10.0581 4.67497 9.55444 4.67497 8.93312ZM2.0083 16.2665C2.0083 15.6451 2.51198 15.1415 3.1333 15.1415H9.1333C9.75462 15.1415 10.2583 15.6451 10.2583 16.2665C10.2583 16.8878 9.75462 17.3915 9.1333 17.3915H3.1333C2.51198 17.3915 2.0083 16.8878 2.0083 16.2665ZM4.0083 23.5998C4.0083 22.9785 4.51198 22.4748 5.1333 22.4748H12.4666C13.088 22.4748 13.5916 22.9785 13.5916 23.5998C13.5916 24.2211 13.088 24.7248 12.4666 24.7248H5.1333C4.51198 24.7248 4.0083 24.2211 4.0083 23.5998Z" fill="#050505"/>
</svg>
