<svg width="33" height="33" viewBox="0 0 33 33" fill="none" xmlns="http://www.w3.org/2000/svg">
<path fill-rule="evenodd" clip-rule="evenodd" d="M16.2132 4.05811C9.47074 4.05811 4.00488 9.52396 4.00488 16.2664C4.00488 23.0089 9.47074 28.4748 16.2132 28.4748C22.9557 28.4748 28.4215 23.0089 28.4215 16.2664C28.4215 9.52396 22.9557 4.05811 16.2132 4.05811ZM1.75488 16.2664C1.75488 8.28132 8.2281 1.80811 16.2132 1.80811C24.1983 1.80811 30.6715 8.28132 30.6715 16.2664C30.6715 24.2516 24.1983 30.7248 16.2132 30.7248C8.2281 30.7248 1.75488 24.2516 1.75488 16.2664ZM16.2132 6.47477C16.8345 6.47477 17.3382 6.97845 17.3382 7.59977V8.47477H17.7688C20.1083 8.47477 22.0049 10.3713 22.0049 12.7109C22.0049 13.3322 21.5012 13.8359 20.8799 13.8359C20.2586 13.8359 19.7549 13.3322 19.7549 12.7109C19.7549 11.614 18.8657 10.7248 17.7688 10.7248H14.8799C13.6603 10.7248 12.6715 11.7135 12.6715 12.9331C12.6715 14.1527 13.6603 15.1414 14.8799 15.1414H17.5465C20.0088 15.1414 22.0049 17.1375 22.0049 19.5998C22.0049 22.062 20.0088 24.0581 17.5465 24.0581H17.3382V24.9331C17.3382 25.5544 16.8345 26.0581 16.2132 26.0581C15.5919 26.0581 15.0882 25.5544 15.0882 24.9331V24.0581H14.6577C12.3181 24.0581 10.4215 22.1615 10.4215 19.822C10.4215 19.2007 10.9252 18.697 11.5465 18.697C12.1679 18.697 12.6715 19.2007 12.6715 19.822C12.6715 20.9189 13.5608 21.8081 14.6577 21.8081H17.5465C18.7662 21.8081 19.7549 20.8194 19.7549 19.5998C19.7549 18.3801 18.7662 17.3914 17.5465 17.3914H14.8799C12.4176 17.3914 10.4215 15.3954 10.4215 12.9331C10.4215 10.4708 12.4176 8.47477 14.8799 8.47477H15.0882V7.59977C15.0882 6.97845 15.5919 6.47477 16.2132 6.47477Z" fill="#050505"/>
</svg>
