<svg xmlns="http://www.w3.org/2000/svg" width="33" height="33" fill="none"><path fill="#050505" fill-rule="evenodd" d="M15.416 6.828c-1.95.605-3.967 1.23-6.002 1.23-1.355 0-2.566-.144-3.589-.34a31 31 0 0 0-1.522-.272c-.21-.027-.31-.028-.342-.029l-.02.009-.017.025a2 2 0 0 0-.031.273c-.02.296-.02.705-.02 1.328v14.33l.002.168a1 1 0 0 0 .09.136c.218.096.37.173.502.24.232.116.394.198.73.291.488.135 1.298.258 2.884.258a1.125 1.125 0 0 1 0 2.25c-1.68 0-2.718-.127-3.484-.34-.555-.153-1.01-.38-1.313-.53a6 6 0 0 0-.234-.113l-.01-.005a2 2 0 0 1-.657-.45 2.6 2.6 0 0 1-.352-.441 2.6 2.6 0 0 1-.262-.502 2.5 2.5 0 0 1-.147-.945V9.012c0-.572 0-1.058.026-1.437.023-.358.076-.82.31-1.22.133-.229.303-.463.549-.666.245-.203.507-.325.758-.413.452-.16.958-.11 1.333-.06.419.055.96.16 1.616.285l.036.007c.9.173 1.968.3 3.164.3 1.679 0 3.376-.524 5.419-1.155l.417-.129c2.173-.668 4.647-1.383 7.497-1.383 3.374 0 5.304.516 6.364.983l.01.005c.057.025.176.077.306.162.133.088.246.187.35.287.15.143.28.33.354.443s.192.306.262.5c.146.406.146.688.146.946v14.387c0 .572 0 1.058-.025 1.437-.024.358-.077.82-.31 1.22-.134.229-.304.463-.55.666-.17.14-.348.243-.525.322a1.2 1.2 0 0 1-.465.256 1.4 1.4 0 0 1-.455.045 3 3 0 0 1-.26-.03 23 23 0 0 1-.747-.136 1.1 1.1 0 0 1-.27-.088c-1.8-.853-3.07-.683-4.033-.554a6 6 0 0 1-.818.076 1.125 1.125 0 1 1 0-2.25l.04-.002.126-.015.197-.027.225-.031c.343-.047.79-.099 1.314-.105a8.7 8.7 0 0 1 3.779.812q.173.034.292.055l.096-.037.07-.028.017-.025c.006-.029.02-.11.032-.273.02-.296.02-.705.02-1.328V6.351l-.002-.035a1 1 0 0 0-.088-.134l-.002-.002c-.7-.307-2.302-.789-5.45-.789-2.483 0-4.675.62-6.835 1.284zm11.93 16.393-.002.005-.003.006v.002zm2.097.815-.001.004zM24.081 9.808c.621 0 1.125.504 1.125 1.125v5.333a1.125 1.125 0 0 1-2.25 0v-5.333c0-.621.503-1.125 1.125-1.125m-8 2.917c-1.22 0-2.209.988-2.209 2.208a1.125 1.125 0 0 1-2.25 0 4.458 4.458 0 0 1 8.917 0 1.125 1.125 0 0 1-2.25 0c0-1.22-.989-2.208-2.208-2.208m-8-.25c.621 0 1.125.503 1.125 1.125v5.333a1.125 1.125 0 0 1-2.25 0V13.6c0-.622.503-1.125 1.125-1.125" clip-rule="evenodd"/><path fill="#050505" fill-rule="evenodd" d="M15.845 30.637a1.12 1.12 0 0 0 1.218-.229l3.523-3.323a1.125 1.125 0 0 0-1.544-1.637l-1.637 1.544v-8.059a1.125 1.125 0 0 0-2.25 0v8.059l-1.636-1.544a1.125 1.125 0 0 0-1.544 1.637l3.533 3.333q.153.142.337.22" clip-rule="evenodd"/></svg>